<?xml version="1.0" encoding="UTF-8"?>
<!DOCTYPE svg PUBLIC "-//W3C//DTD SVG 1.1//EN" "http://www.w3.org/Graphics/SVG/1.1/DTD/svg11.dtd">
<svg xmlns="http://www.w3.org/2000/svg" version="1.1" width="154px" height="26px" style="shape-rendering:geometricPrecision; text-rendering:geometricPrecision; image-rendering:optimizeQuality; fill-rule:evenodd; clip-rule:evenodd" xmlns:xlink="http://www.w3.org/1999/xlink">
<g><path style="opacity:0.857" fill="#343534" d="M 2.5,2.5 C 5.5,2.5 8.5,2.5 11.5,2.5C 11.5,9.16667 11.5,15.8333 11.5,22.5C 8.5,22.5 5.5,22.5 2.5,22.5C 2.5,15.8333 2.5,9.16667 2.5,2.5 Z"/></g>
<g><path style="opacity:0.849" fill="#f2631b" d="M 15.5,2.5 C 18.8333,2.5 22.1667,2.5 25.5,2.5C 25.5,9.16667 25.5,15.8333 25.5,22.5C 22.1667,22.5 18.8333,22.5 15.5,22.5C 15.5,15.8333 15.5,9.16667 15.5,2.5 Z"/></g>
<g><path style="opacity:0.855" fill="#343534" d="M 28.5,2.5 C 31.5,2.5 34.5,2.5 37.5,2.5C 37.5,9.16667 37.5,15.8333 37.5,22.5C 34.5,22.5 31.5,22.5 28.5,22.5C 28.5,15.8333 28.5,9.16667 28.5,2.5 Z"/></g>
<g><path style="opacity:0.855" fill="#f1631b" d="M 41.5,2.5 C 44.5,2.5 47.5,2.5 50.5,2.5C 50.5,9.16667 50.5,15.8333 50.5,22.5C 47.5,22.5 44.5,22.5 41.5,22.5C 41.5,15.8333 41.5,9.16667 41.5,2.5 Z"/></g>
<g><path style="opacity:0.681" fill="#f1631b" d="M 55.5,3.5 C 56.8333,3.5 58.1667,3.5 59.5,3.5C 60.5,15.5 61.5,15.5 62.5,3.5C 64.1667,3.5 65.8333,3.5 67.5,3.5C 67.334,8.84372 67.5006,14.1771 68,19.5C 68.8723,14.8053 69.8723,10.1386 71,5.5C 72.3117,3.34239 73.9783,3.00906 76,4.5C 77,9.16667 78,13.8333 79,18.5C 79.3333,14.1667 79.6667,9.83333 80,5.5C 86.127,1.70582 89.2937,3.37248 89.5,10.5C 88.1667,10.5 86.8333,10.5 85.5,10.5C 85.719,9.32496 85.3857,8.32496 84.5,7.5C 83.1667,10.8333 83.1667,14.1667 84.5,17.5C 84.9202,15.674 84.9202,13.674 84.5,11.5C 86.1667,11.5 87.8333,11.5 89.5,11.5C 89.7839,14.7766 89.4505,17.9433 88.5,21C 85.3307,21.9782 82.4973,21.4782 80,19.5C 78.951,21.1066 77.451,21.7733 75.5,21.5C 75.5,20.5 75.5,19.5 75.5,18.5C 73.6412,18.4609 72.3079,19.2942 71.5,21C 68.854,21.4974 66.1873,21.6641 63.5,21.5C 63.1667,17.5 62.8333,17.5 62.5,21.5C 61.5,21.5 60.5,21.5 59.5,21.5C 59.1667,17.5 58.8333,17.5 58.5,21.5C 57.5,21.5 56.5,21.5 55.5,21.5C 55.5,15.5 55.5,9.5 55.5,3.5 Z"/></g>
<g><path style="opacity:0.679" fill="#f1631b" d="M 90.5,3.5 C 93.5,3.5 96.5,3.5 99.5,3.5C 99.5,4.83333 99.5,6.16667 99.5,7.5C 97.8333,7.5 96.1667,7.5 94.5,7.5C 94.5,8.5 94.5,9.5 94.5,10.5C 95.8333,10.5 97.1667,10.5 98.5,10.5C 98.6567,11.8734 98.49,13.2068 98,14.5C 97,15.8333 96,15.8333 95,14.5C 94.5172,15.448 94.3505,16.448 94.5,17.5C 96.1667,17.5 97.8333,17.5 99.5,17.5C 99.5,18.8333 99.5,20.1667 99.5,21.5C 96.5,21.5 93.5,21.5 90.5,21.5C 90.5,15.5 90.5,9.5 90.5,3.5 Z"/></g>
<g><path style="opacity:0.633" fill="#f1631b" d="M 100.5,3.5 C 104.038,3.21531 105.871,4.88198 106,8.5C 106.494,6.86586 106.66,5.19919 106.5,3.5C 114.645,3.99686 122.645,3.99686 130.5,3.5C 130.459,7.24344 131.126,7.4101 132.5,4C 138.331,2.33409 140.998,4.50076 140.5,10.5C 139.167,10.5 137.833,10.5 136.5,10.5C 136.728,8.64527 136.061,7.81194 134.5,8C 135.833,11 135.833,14 134.5,17C 136.061,17.1881 136.728,16.3547 136.5,14.5C 137.833,14.5 139.167,14.5 140.5,14.5C 141.578,21.0653 138.911,23.232 132.5,21C 132,20.5 131.5,20 131,19.5C 127.851,21.3625 124.351,22.0291 120.5,21.5C 120.5,16.8333 120.5,12.1667 120.5,7.5C 119.5,7.5 118.5,7.5 117.5,7.5C 117.5,12.1667 117.5,16.8333 117.5,21.5C 116.167,21.5 114.833,21.5 113.5,21.5C 113.5,16.8333 113.5,12.1667 113.5,7.5C 112.5,7.5 111.5,7.5 110.5,7.5C 110.5,12.1667 110.5,16.8333 110.5,21.5C 106.648,21.5113 104.815,19.5113 105,15.5C 104.505,17.4727 104.338,19.4727 104.5,21.5C 103.167,21.5 101.833,21.5 100.5,21.5C 100.5,15.5 100.5,9.5 100.5,3.5 Z M 124.5,8.5 C 126.265,7.53862 128.265,7.20528 130.5,7.5C 130.5,10.8333 130.5,14.1667 130.5,17.5C 124.062,18.0954 123.395,17.0954 128.5,14.5C 129.429,13.3112 129.762,11.9778 129.5,10.5C 127.801,10.6602 126.134,10.4935 124.5,10C 125.738,9.31001 125.738,8.81001 124.5,8.5 Z"/></g>
<g><path style="opacity:0.711" fill="#f1631b" d="M 141.5,3.5 C 142.833,3.5 144.167,3.5 145.5,3.5C 145.833,12.8333 146.167,12.8333 146.5,3.5C 147.5,3.5 148.5,3.5 149.5,3.5C 149.5,9.5 149.5,15.5 149.5,21.5C 148.5,21.5 147.5,21.5 146.5,21.5C 146.167,12.1667 145.833,12.1667 145.5,21.5C 144.167,21.5 142.833,21.5 141.5,21.5C 141.5,15.5 141.5,9.5 141.5,3.5 Z"/></g>
</svg>
