<?xml version="1.0" encoding="UTF-8"?>
<!DOCTYPE svg PUBLIC "-//W3C//DTD SVG 1.1//EN" "http://www.w3.org/Graphics/SVG/1.1/DTD/svg11.dtd">
<svg xmlns="http://www.w3.org/2000/svg" version="1.1" width="163px" height="87px" style="shape-rendering:geometricPrecision; text-rendering:geometricPrecision; image-rendering:optimizeQuality; fill-rule:evenodd; clip-rule:evenodd" xmlns:xlink="http://www.w3.org/1999/xlink">
<g><path style="opacity:0.881" fill="#343534" d="M 47.5,12.5 C 51.5,12.5 55.5,12.5 59.5,12.5C 59.5,21.5 59.5,30.5 59.5,39.5C 55.5,39.5 51.5,39.5 47.5,39.5C 47.5,30.5 47.5,21.5 47.5,12.5 Z"/></g>
<g><path style="opacity:0.885" fill="#f1631b" d="M 66.5,12.5 C 70.5,12.5 74.5,12.5 78.5,12.5C 78.5,21.5 78.5,30.5 78.5,39.5C 74.5,39.5 70.5,39.5 66.5,39.5C 66.5,30.5 66.5,21.5 66.5,12.5 Z"/></g>
<g><path style="opacity:0.884" fill="#343534" d="M 83.5,12.5 C 87.5,12.5 91.5,12.5 95.5,12.5C 95.5,21.5 95.5,30.5 95.5,39.5C 91.5,39.5 87.5,39.5 83.5,39.5C 83.5,30.5 83.5,21.5 83.5,12.5 Z"/></g>
<g><path style="opacity:0.885" fill="#f1631b" d="M 101.5,12.5 C 105.5,12.5 109.5,12.5 113.5,12.5C 113.5,21.5 113.5,30.5 113.5,39.5C 109.5,39.5 105.5,39.5 101.5,39.5C 101.5,30.5 101.5,21.5 101.5,12.5 Z"/></g>
<g><path style="opacity:0.691" fill="#f1631b" d="M 65.5,48.5 C 69.4367,48.2065 73.27,48.5399 77,49.5C 77.7203,51.1124 77.5536,52.6124 76.5,54C 73.8333,54.3333 71.1667,54.6667 68.5,55C 69.8333,56.3333 69.8333,57.6667 68.5,59C 70.8098,59.4966 73.1432,59.6633 75.5,59.5C 75.5,61.1667 75.5,62.8333 75.5,64.5C 73.1432,64.3367 70.8098,64.5034 68.5,65C 69.3802,66.3561 69.7135,67.8561 69.5,69.5C 71.8568,69.3367 74.1902,69.5034 76.5,70C 77.8333,71.3333 77.8333,72.6667 76.5,74C 64.507,77.8407 60.1737,73.674 63.5,61.5C 63.5655,56.9136 64.2322,52.5803 65.5,48.5 Z"/></g>
<g><path style="opacity:0.709" fill="#f1631b" d="M 108.5,48.5 C 112.5,48.5 116.5,48.5 120.5,48.5C 120.5,50.5 120.5,52.5 120.5,54.5C 117.813,54.3359 115.146,54.5026 112.5,55C 113.833,56.3333 113.833,57.6667 112.5,59C 114.81,59.4966 117.143,59.6633 119.5,59.5C 119.5,61.1667 119.5,62.8333 119.5,64.5C 117.143,64.3367 114.81,64.5034 112.5,65C 113.833,66.3333 113.833,67.6667 112.5,69C 115.146,69.4974 117.813,69.6641 120.5,69.5C 120.5,71.1667 120.5,72.8333 120.5,74.5C 116.167,74.5 111.833,74.5 107.5,74.5C 107.197,65.7489 107.53,57.0823 108.5,48.5 Z"/></g>
<g><path style="opacity:0.794" fill="#f1631b" d="M 13.5,49.5 C 15.4672,49.2606 17.3005,49.5939 19,50.5C 20.097,65.0021 21.7637,65.0021 24,50.5C 26.0408,49.5769 28.2075,49.2436 30.5,49.5C 30.5,57.8333 30.5,66.1667 30.5,74.5C 28.8333,74.5 27.1667,74.5 25.5,74.5C 25.4806,61.2474 24.8139,61.2474 23.5,74.5C 22.1667,74.5 20.8333,74.5 19.5,74.5C 18.188,62.5868 17.5214,62.5868 17.5,74.5C 16.1667,74.5 14.8333,74.5 13.5,74.5C 13.5,66.1667 13.5,57.8333 13.5,49.5 Z"/></g>
<g><path style="opacity:0.755" fill="#f1631b" d="M 36.5,49.5 C 39.0792,49.0833 41.2458,49.75 43,51.5C 44.8231,59.1152 46.3231,66.7818 47.5,74.5C 43.4877,75.1126 41.4877,73.4459 41.5,69.5C 40.1667,69.5 38.8333,69.5 37.5,69.5C 37.5123,73.4459 35.5123,75.1126 31.5,74.5C 33.0081,66.1345 34.6747,57.8012 36.5,49.5 Z M 38.5,60.5 C 40.561,61.7514 40.8943,63.4181 39.5,65.5C 38.5481,63.9547 38.2148,62.288 38.5,60.5 Z"/></g>
<g><path style="opacity:0.748" fill="#f1631b" d="M 50.5,49.5 C 53.8499,49.335 57.1832,49.5017 60.5,50C 62.1793,52.5645 62.846,55.3979 62.5,58.5C 60.8333,58.5 59.1667,58.5 57.5,58.5C 57.5,57.1667 57.5,55.8333 57.5,54.5C 56.1667,54.5 54.8333,54.5 53.5,54.5C 53.5,59.5 53.5,64.5 53.5,69.5C 55.6348,69.853 56.9681,69.0197 57.5,67C 55.9145,64.7438 55.2479,62.2438 55.5,59.5C 57.5914,59.3184 59.5914,59.6518 61.5,60.5C 63.2265,65.4372 62.5598,69.9372 59.5,74C 49.5806,75.7435 45.914,71.5769 48.5,61.5C 48.6667,58.1667 48.8333,54.8333 49,51.5C 49.7172,50.9558 50.2172,50.2891 50.5,49.5 Z"/></g>
<g><path style="opacity:0.773" fill="#f1631b" d="M 78.5,49.5 C 80.4672,49.2606 82.3005,49.5939 84,50.5C 86.9002,62.4697 88.0668,62.1364 87.5,49.5C 89.1667,49.5 90.8333,49.5 92.5,49.5C 92.5,57.8333 92.5,66.1667 92.5,74.5C 90.712,74.7852 89.0453,74.4519 87.5,73.5C 86.2347,70.2043 85.0681,66.871 84,63.5C 83.5014,67.1516 83.3347,70.8183 83.5,74.5C 81.8333,74.5 80.1667,74.5 78.5,74.5C 78.5,66.1667 78.5,57.8333 78.5,49.5 Z"/></g>
<g><path style="opacity:0.767" fill="#f1631b" d="M 93.5,49.5 C 97.8333,49.5 102.167,49.5 106.5,49.5C 107.244,52.9496 105.91,54.6162 102.5,54.5C 102.666,60.8421 102.5,67.1754 102,73.5C 100.644,74.3802 99.1439,74.7135 97.5,74.5C 97.5,67.8333 97.5,61.1667 97.5,54.5C 96.1667,54.5 94.8333,54.5 93.5,54.5C 93.5,52.8333 93.5,51.1667 93.5,49.5 Z"/></g>
<g><path style="opacity:0.767" fill="#f1631b" d="M 123.5,49.5 C 126.85,49.335 130.183,49.5017 133.5,50C 135.179,52.5645 135.846,55.3979 135.5,58.5C 133.833,58.5 132.167,58.5 130.5,58.5C 130.5,57.1667 130.5,55.8333 130.5,54.5C 129.5,54.5 128.5,54.5 127.5,54.5C 127.173,59.544 127.506,64.544 128.5,69.5C 130.111,68.6798 130.778,67.3464 130.5,65.5C 132.167,65.5 133.833,65.5 135.5,65.5C 135.228,74.5788 131.061,76.9121 123,72.5C 122.202,64.754 122.369,57.0873 123.5,49.5 Z"/></g>
<g><path style="opacity:0.746" fill="#f1631b" d="M 136.5,49.5 C 138.5,49.5 140.5,49.5 142.5,49.5C 142.784,52.7766 142.451,55.9433 141.5,59C 142.448,59.4828 143.448,59.6495 144.5,59.5C 144.5,56.1667 144.5,52.8333 144.5,49.5C 145.833,49.5 147.167,49.5 148.5,49.5C 148.5,57.8333 148.5,66.1667 148.5,74.5C 147.167,74.5 145.833,74.5 144.5,74.5C 144.5,71.1667 144.5,67.8333 144.5,64.5C 143.448,64.3505 142.448,64.5172 141.5,65C 142.451,68.0567 142.784,71.2234 142.5,74.5C 140.5,74.5 138.5,74.5 136.5,74.5C 136.5,66.1667 136.5,57.8333 136.5,49.5 Z"/></g>
</svg>
